<svg xmlns="http://www.w3.org/2000/svg" xmlns:xlink="http://www.w3.org/1999/xlink" width="16" height="15" viewBox="0 0 16 15"><defs><path id="u5eba" d="M45.55 1506.47l-1 .52 1.1.53-6.01 3.13-5.93-3.13 1.15-.51-1-.53-1.38.61a.43.43 0 0 0-.25.4c0 .09.02.17.06.24.05.08.1.13.17.17l6.95 3.67a.58.58 0 0 0 .23.06l.1-.02c.04 0 .08-.02.12-.04l7.02-3.67c.07-.04.13-.1.18-.17a.47.47 0 0 0 .06-.24.42.42 0 0 0-.07-.23.46.46 0 0 0-.19-.17zm-.08-3.23l-1 .53 1.18.58-6.01 3.13-5.93-3.13 1.24-.61-1-.53-1.47.71a.43.43 0 0 0-.25.4c0 .08.02.16.06.24.05.07.1.13.17.17l6.95 3.67a.58.58 0 0 0 .23.05l.1-.01.12-.04 7.02-3.67c.07-.04.13-.1.18-.17a.47.47 0 0 0 .06-.24.42.42 0 0 0-.07-.23.46.46 0 0 0-.19-.17zm.25-2.22l-6 3.13-5.94-3.13 6-2.93zm-6.23 4.05a3.5 3.5 0 0 1 .22.04h.12l.1-.04 7.03-3.67a.47.47 0 0 0 .23-.41.44.44 0 0 0-.24-.4l-6.94-3.4a.43.43 0 0 0-.43 0l-7.01 3.4a.48.48 0 0 0-.2.17.4.4 0 0 0-.07.23c0 .09.02.17.07.24.04.08.1.13.18.17z"/></defs><g><g transform="translate(-32 -1497)"><use fill="#fff" xlink:href="#u5eba"/></g></g></svg>